<?xml version="1.0" encoding="UTF-8" standalone="no"?>
<!-- Created with Inkscape (http://www.inkscape.org/) -->
<svg xmlns:dc="http://purl.org/dc/elements/1.1/" xmlns:cc="http://creativecommons.org/ns#" xmlns:rdf="http://www.w3.org/1999/02/22-rdf-syntax-ns#" xmlns:svg="http://www.w3.org/2000/svg" xmlns="http://www.w3.org/2000/svg" xmlns:sodipodi="http://sodipodi.sourceforge.net/DTD/sodipodi-0.dtd" xmlns:inkscape="http://www.inkscape.org/namespaces/inkscape" id="svg4323" version="1.1" inkscape:version="0.48.1 r9760" width="220" height="220" sodipodi:docname="Qr-1.png">
  <metadata id="metadata4329">
    <rdf:RDF>
      <cc:Work rdf:about="">
        <dc:format>image/svg+xml</dc:format>
        <dc:type rdf:resource="http://purl.org/dc/dcmitype/StillImage"/>
        <dc:title/>
      </cc:Work>
    </rdf:RDF>
  </metadata>
  <defs id="defs4327"/>
  <sodipodi:namedview pagecolor="#ffffff" bordercolor="#666666" borderopacity="1" objecttolerance="10" gridtolerance="10" guidetolerance="10" inkscape:pageopacity="0" inkscape:pageshadow="2" inkscape:window-width="1400" inkscape:window-height="1002" id="namedview4325" showgrid="false" showguides="true" inkscape:guide-bbox="true" inkscape:zoom="3.406969" inkscape:cx="119.37834" inkscape:cy="109.32214" inkscape:window-x="-3" inkscape:window-y="-3" inkscape:window-maximized="1" inkscape:current-layer="svg4323">
    <sodipodi:guide orientation="1,0" position="35.808955,115.05828" id="guide4591"/>
    <sodipodi:guide orientation="0,1" position="75.433618,184.03455" id="guide4593"/>
    <sodipodi:guide orientation="1,0" position="242.15072,-2.6416442" id="guide4595"/>
    <sodipodi:guide orientation="0,1" position="249.48862,22.600734" id="guide4597"/>
  </sodipodi:namedview>
  <g id="g4542" transform="matrix(0.05011737,0,0,-0.05011737,-0.2755514,220.39737)" style="fill:#000000;stroke:none">
    <path id="path4544" d="m 720,3190 0,-490 490,0 490,0 0,490 0,490 -490,0 -490,0 0,-490 z m 840,0 0,-350 -350,0 -350,0 0,350 0,350 350,0 350,0 0,-350 z" inkscape:connector-curvature="0" style="fill:#000000"/>
    <path id="path4546" d="m 1000,3190 0,-210 210,0 210,0 0,210 0,210 -210,0 -210,0 0,-210 z" inkscape:connector-curvature="0" style="fill:#000000"/>
    <path id="path4548" d="m 2120,3610 0,-70 140,0 140,0 0,-210 0,-210 -140,0 -140,0 0,-210 0,-210 70,0 70,0 0,140 0,140 140,0 140,0 0,280 0,280 -70,0 -70,0 0,70 0,70 -140,0 -140,0 0,-70 z" inkscape:connector-curvature="0" style="fill:#000000"/>
    <path id="path4550" d="m 2680,3190 0,-490 490,0 490,0 0,490 0,490 -490,0 -490,0 0,-490 z m 840,0 0,-350 -350,0 -350,0 0,350 0,350 350,0 350,0 0,-350 z" inkscape:connector-curvature="0" style="fill:#000000"/>
    <path id="path4552" d="m 2960,3190 0,-210 210,0 210,0 0,210 0,210 -210,0 -210,0 0,-210 z" inkscape:connector-curvature="0" style="fill:#000000"/>
    <path id="path4554" d="m 1840,3120 0,-420 70,0 70,0 0,420 0,420 -70,0 -70,0 0,-420 z" inkscape:connector-curvature="0" style="fill:#000000"/>
    <path id="path4556" d="m 2400,2770 0,-70 70,0 70,0 0,70 0,70 -70,0 -70,0 0,-70 z" inkscape:connector-curvature="0" style="fill:#000000"/>
    <path id="path4558" d="m 1000,2490 0,-70 70,0 70,0 0,-140 0,-140 -70,0 -70,0 0,70 0,70 -140,0 -140,0 0,-70 0,-70 70,0 70,0 0,-70 0,-70 -70,0 -70,0 0,-70 0,-70 210,0 210,0 0,70 0,70 70,0 70,0 0,70 0,70 70,0 70,0 0,70 0,70 70,0 70,0 0,-70 0,-70 140,0 140,0 0,-70 0,-70 -140,0 -140,0 0,-70 0,-70 140,0 140,0 0,-210 0,-210 140,0 140,0 0,-70 0,-70 70,0 70,0 0,-70 0,-70 140,0 140,0 0,-70 0,-70 -70,0 -70,0 0,-70 0,-70 -70,0 -70,0 0,70 0,70 -70,0 -70,0 0,70 0,70 -140,0 -140,0 0,-70 0,-70 70,0 70,0 0,-70 0,-70 70,0 70,0 0,-70 0,-70 140,0 140,0 0,70 0,70 70,0 70,0 0,70 0,70 70,0 70,0 0,-140 0,-140 70,0 70,0 0,280 0,280 140,0 140,0 0,70 0,70 -70,0 -70,0 0,70 0,70 140,0 140,0 0,70 0,70 -140,0 -140,0 0,70 0,70 -70,0 -70,0 0,-140 0,-140 -70,0 -70,0 0,280 0,280 70,0 70,0 0,140 0,140 140,0 140,0 0,-70 0,-70 70,0 70,0 0,-70 0,-70 -140,0 -140,0 0,-70 0,-70 140,0 140,0 0,70 0,70 70,0 70,0 0,70 0,70 -70,0 -70,0 0,70 0,70 140,0 140,0 0,-280 0,-280 -70,0 -70,0 0,-70 0,-70 70,0 70,0 0,-70 0,-70 70,0 70,0 0,70 0,70 -70,0 -70,0 0,70 0,70 70,0 70,0 0,280 0,280 -70,0 -70,0 0,70 0,70 -350,0 -350,0 0,-70 0,-70 -70,0 -70,0 0,70 0,70 -70,0 -70,0 0,-70 0,-70 -70,0 -70,0 0,70 0,70 -490,0 -490,0 0,-70 0,-70 -140,0 -140,0 0,70 0,70 -70,0 -70,0 0,-70 z m 700,-140 0,-70 -70,0 -70,0 0,70 0,70 70,0 70,0 0,-70 z m 980,-70 0,-140 -70,0 -70,0 0,-70 0,-70 -70,0 -70,0 0,70 0,70 -70,0 -70,0 0,-70 0,-70 -70,0 -70,0 0,-70 0,-70 140,0 140,0 0,-70 0,-70 -140,0 -140,0 0,70 0,70 -140,0 -140,0 0,70 0,70 70,0 70,0 0,70 0,70 -70,0 -70,0 0,70 0,70 140,0 140,0 0,-70 0,-70 70,0 70,0 0,70 0,70 70,0 70,0 0,-70 0,-70 70,0 70,0 0,140 0,140 70,0 70,0 0,-140 z m -280,-770 0,-70 70,0 70,0 0,70 0,70 70,0 70,0 0,-70 0,-70 70,0 70,0 0,-70 0,-70 -70,0 -70,0 0,70 0,70 -70,0 -70,0 0,-70 0,-70 -140,0 -140,0 0,70 0,70 -70,0 -70,0 0,70 0,70 140,0 140,0 0,-70 z" inkscape:connector-curvature="0" style="fill:#000000"/>
    <path id="path4560" d="m 720,1230 0,-490 490,0 490,0 0,490 0,490 -490,0 -490,0 0,-490 z m 840,0 0,-350 -350,0 -350,0 0,350 0,350 350,0 350,0 0,-350 z" inkscape:connector-curvature="0" style="fill:#000000"/>
    <path id="path4562" d="m 1000,1230 0,-210 210,0 210,0 0,210 0,210 -210,0 -210,0 0,-210 z" inkscape:connector-curvature="0" style="fill:#000000"/>
    <path id="path4564" d="m 3520,1370 0,-70 70,0 70,0 0,70 0,70 -70,0 -70,0 0,-70 z" inkscape:connector-curvature="0" style="fill:#000000"/>
    <path id="path4566" d="m 3240,1090 0,-70 210,0 210,0 0,70 0,70 -210,0 -210,0 0,-70 z" inkscape:connector-curvature="0" style="fill:#000000"/>
    <path id="path4568" d="m 2960,950 0,-70 70,0 70,0 0,-70 0,-70 140,0 140,0 0,70 0,70 -140,0 -140,0 0,70 0,70 -70,0 -70,0 0,-70 z" inkscape:connector-curvature="0" style="fill:#000000"/>
    <path id="path4570" d="m 3520,810 0,-70 70,0 70,0 0,70 0,70 -70,0 -70,0 0,-70 z" inkscape:connector-curvature="0" style="fill:#000000"/>
  </g>
</svg>